<svg xmlns="http://www.w3.org/2000/svg" width="83.719" height="24.438" viewBox="0 0 83.719 24.438">
  <defs>
    <style>
      .cls-1 {
        fill-rule: evenodd;
      }
    </style>
  </defs>
  <path id="design.svg" class="cls-1" d="M69.943,102.732q1.621,1.353,3.3,2.585c2.218,1.61,3.9,1.421,4.9-.163l3.2-5.01c1-1.6.628-3.016-1.166-4.32q-1.376-1.008-2.7-2.116l-7.534,9.024h0Zm3.17,0.386,5.1-6.668q0.468,0.359.941,0.705a1.027,1.027,0,0,1,.3,1.618l-3.5,5.01a1.082,1.082,0,0,1-1.752.149Q73.652,103.532,73.113,103.118Zm12.525,9.316a64.172,64.172,0,0,0,6.7,2.481l0.5-1.605q-2.1-.647-4.159-1.443l1.3-3.368q1.543,0.6,3.11,1.1l0.519-1.6q-1.522-.493-3.022-1.074l1.122-2.9q1.786,0.692,3.605,1.252l0.5-1.605a52.584,52.584,0,0,1-5.487-2.032Zm19.56,5.221c2.543,0.236,3.945-.826,4-2.731,0.058-1.467-.575-2.405-2.4-3.906-1.421-1.181-1.8-1.866-1.7-2.713a1.109,1.109,0,1,1,2.2.242q-0.024.3-.046,0.6,1.058,0.079,2.114.118l0.018-.487c0.058-1.887-.917-2.969-2.942-3.154s-3.268.67-3.566,2.5c-0.2,1.321.231,2.385,2.042,3.962,1.43,1.216,1.889,1.857,1.811,2.832a1.286,1.286,0,0,1-2.554-.212c0.031-.267.063-0.534,0.094-0.8q-1.146-.133-2.29-0.312c-0.035.221-.07,0.443-0.1,0.664C101.568,116.107,102.656,117.4,105.2,117.655Zm13.545-.281q1.278-.144,2.55-0.339-0.891-5.809-1.784-11.619-1.041.159-2.088,0.277,0.662,5.841,1.322,11.681h0Zm15.931-3.7c2.4-.924,3.152-2.486,2.366-4.186l-1.586-3.5q-1.541.7-3.112,1.3l0.6,1.567q0.56-.215,1.115-0.44l0.869,2.13a1.3,1.3,0,0,1-2.408.922q-1.09-3.025-2.18-6.052a1.155,1.155,0,0,1,2.158-.826q0.213,0.521.425,1.042,1-.407,1.982-0.851l-0.415-.918c-0.791-1.715-2.212-2.219-4.138-1.478s-2.641,2.049-2.085,3.853l1.86,5.894C130.678,113.918,132.271,114.583,134.673,113.676Zm12.306-6.477q0.984-.646,1.95-1.331-2.482-3.5-4.963-7L144,98.841q3.611,2.7,7.528,5.081,1.08-.852,2.129-1.754L146,93.247q-0.744.641-1.508,1.25L148.875,100l-0.035.029q-3.135-2-6.068-4.219-1.1.808-2.238,1.553Q143.756,102.282,146.979,107.2Z" transform="translate(-69.938 -93.25)"/>
</svg>
