<svg xmlns="http://www.w3.org/2000/svg" width="47.563" height="44.719" viewBox="0 0 47.563 44.719">
  <defs>
    <style>
      .cls-1 {
        fill-rule: evenodd;
      }
    </style>
  </defs>
  <path id="Level.svg" class="cls-1" d="M114.408,26.34l5.5,1.787,0.6-1.918L117.091,25.1l3.626-11.508-2.079-.675Zm12.474,4.8,5.475,2.373,0.779-1.852-3.468-1.5,1.675-3.982,2.756,1.195,0.778-1.852-2.755-1.195,1.441-3.426,3.467,1.5,0.779-1.852-5.475-2.373Zm11.565,7.767,2.293,1.8,10.15-9.854L149.3,29.61l-7.712,7.77-0.032-.025,5.451-9.542-1.744-1.366Zm6.138,6.057,3.42,4.946,1.624-1.157-2.166-3.133,3.492-2.486,1.721,2.489,1.624-1.156-1.721-2.49,3-2.139,2.166,3.133,1.625-1.157-3.421-4.946Zm3.828,7.282,2.021,5.378,1.829-.707-1.258-3.345,10.97-4.244L161.211,47.3Z" transform="translate(-114.406 -12.906)"/>
</svg>
