<svg xmlns="http://www.w3.org/2000/svg" width="44.876" height="36.969" viewBox="0 0 44.876 36.969">
  <defs>
    <style>
      .cls-1 {
        fill-rule: evenodd;
      }
    </style>
  </defs>
  <path id="NEXT.svg" class="cls-1" d="M73.008,51.659l1.231-1.4-7.261-6.416L67,43.816l8.919,4.531,1.419-1.613-9.947-8.789-1.231,1.4,5.954,5.261-0.025.028-7.3-3.733-1.733,1.97Zm9.18-11.743,4.482-3.524L85.5,34.9,82.663,37.13l-2.511-3.214,2.256-1.774L81.24,30.647l-2.256,1.774-2.161-2.766,2.839-2.232-1.168-1.495-4.482,3.524Zm9.051-6.477L93,32.545,92.306,27.7l0.034-.017,3.437,3.45,1.965-1L92.536,25.16,91.667,18.32l-1.761.894L90.547,23.7l-0.034.017-3.182-3.2-1.965,1,4.968,4.759Zm14.73-4.761,1.979-.664L104.359,17.2l2.069-.694-0.6-1.8-6.119,2.053,0.6,1.8,2.07-.695Z" transform="translate(-63.063 -14.688)"/>
</svg>
