<svg xmlns="http://www.w3.org/2000/svg" width="229.813" height="40.469" viewBox="0 0 229.813 40.469">
  <defs>
    <style>
      .cls-1 {
        fill-rule: evenodd;
      }
    </style>
  </defs>
  <path id="_Oscar_castañeda_-portfolio-.svg" data-name=" Oscar castañeda -portfolio-.svg" class="cls-1" d="M5.092,159.182c2.975,0,4.6-1.381,4.6-3.8v-7.939c0-2.417-1.625-3.8-4.6-3.8s-4.6,1.38-4.6,3.8v7.939C0.491,157.8,2.116,159.182,5.092,159.182Zm0-2.157a1.35,1.35,0,0,1-1.57-1.489v-8.241a1.35,1.35,0,0,1,1.57-1.489,1.35,1.35,0,0,1,1.57,1.489v8.241A1.35,1.35,0,0,1,5.092,157.025Zm16.09,2.157c2.975,0,4.573-1.381,4.573-3.84,0-1.877-.8-3.085-3.333-4.833-1.984-1.359-2.617-2.157-2.617-3.258a1.3,1.3,0,0,1,1.515-1.445,1.311,1.311,0,0,1,1.515,1.489v0.776H25.7v-0.625c0-2.417-1.46-3.8-4.408-3.8s-4.518,1.38-4.518,3.754c0,1.725.826,2.955,3.361,4.7,1.984,1.359,2.59,2.157,2.59,3.409a1.348,1.348,0,0,1-1.57,1.51,1.336,1.336,0,0,1-1.57-1.467v-1.036H16.719v0.863C16.719,157.8,18.207,159.182,21.182,159.182Zm16.09,0c2.92,0,4.463-1.381,4.463-3.711v-2.135H38.87v2.308a1.293,1.293,0,0,1-1.515,1.381,1.293,1.293,0,0,1-1.515-1.381v-8.436a1.308,1.308,0,0,1,1.515-1.4,1.308,1.308,0,0,1,1.515,1.4v1.748h2.865v-1.6c0-2.33-1.543-3.71-4.463-3.71s-4.463,1.38-4.463,3.71v8.112C32.81,157.8,34.352,159.182,37.273,159.182Zm10.994-.216h2.81l0.551-2.955h3.444v-0.043l0.551,3h3.03l-3.141-15.1h-4.1Zm3.719-5,1.322-7.465h0.055l1.35,7.465H51.986Zm13.638,5h3.03v-6.472H69.7c1.377,0,1.9.453,1.9,1.856v2.761a3.721,3.721,0,0,0,.275,1.855h3.085a3.57,3.57,0,0,1-.331-1.833v-2.654c0-1.7-.5-2.826-2.011-3.193v-0.043a2.769,2.769,0,0,0,1.984-2.978v-0.927c0-2.33-1.35-3.474-4.49-3.474H65.624v15.1Zm3.03-8.629v-4.315h1.377a1.335,1.335,0,0,1,1.543,1.553v1.165c0,1.208-.689,1.6-1.818,1.6h-1.1Zm27.772,8.845c2.92,0,4.463-1.381,4.463-3.711v-2.135H98.024v2.308a1.522,1.522,0,0,1-3.03,0v-8.436a1.52,1.52,0,0,1,3.03,0v1.748h2.866v-1.6c0-2.33-1.543-3.71-4.463-3.71s-4.463,1.38-4.463,3.71v8.112C91.964,157.8,93.506,159.182,96.427,159.182Zm10.993-.216h2.81l0.551-2.955h3.444v-0.043l0.551,3h3.031l-3.141-15.1h-4.1Zm3.72-5,1.322-7.465h0.055l1.35,7.465H111.14Zm17.495,5.221c2.975,0,4.573-1.381,4.573-3.84,0-1.877-.8-3.085-3.333-4.833-1.984-1.359-2.617-2.157-2.617-3.258a1.3,1.3,0,0,1,1.515-1.445,1.311,1.311,0,0,1,1.515,1.489v0.776h2.865v-0.625c0-2.417-1.46-3.8-4.408-3.8s-4.518,1.38-4.518,3.754c0,1.725.827,2.955,3.361,4.7,1.984,1.359,2.59,2.157,2.59,3.409a1.573,1.573,0,0,1-3.141.043v-1.036h-2.865v0.863C124.172,157.8,125.66,159.182,128.635,159.182Zm14.19-.216h3.03V146.022h3.168v-2.158h-9.367v2.158h3.169v12.944Zm11.1,0h2.81l0.551-2.955h3.443v-0.043l0.551,3h3.031l-3.141-15.1h-4.105Zm3.719-5,1.322-7.465h0.055l1.35,7.465h-2.727Zm16.035-11.024a1.281,1.281,0,0,1,1.1-.842,2.23,2.23,0,0,1,.937.281,3.607,3.607,0,0,0,1.653.41,2.884,2.884,0,0,0,2.507-1.813l-1.46-.69a1.282,1.282,0,0,1-1.1.841,2.224,2.224,0,0,1-.937-0.28,3.607,3.607,0,0,0-1.653-.41,2.883,2.883,0,0,0-2.507,1.812Zm-2.4,16.029h2.7V147.942h0.055l3.637,11.024h3.113v-15.1h-2.7v9.04h-0.055l-2.948-9.04h-3.8v15.1Zm17.275,0h8.265v-2.157h-5.234V152.17h4.16v-2.157h-4.16v-3.991h5.234v-2.158h-8.265v15.1Zm15.512,0H208.7c3.031,0,4.518-1.316,4.518-3.732V147.6c0-2.417-1.487-3.733-4.518-3.733h-4.628v15.1Zm3.03-2.157V146.022h1.543a1.316,1.316,0,0,1,1.543,1.467v7.853a1.316,1.316,0,0,1-1.543,1.467H207.1Zm12.812,2.157h2.811l0.551-2.955h3.443v-0.043l0.551,3H230.3l-3.141-15.1h-4.1Zm3.72-5,1.322-7.465h0.055l1.35,7.465h-2.727ZM49.36,175.168h5.055v-1.8H49.36v1.8Zm11.17,5.4h2.528v-5.128h1.195c2.528,0,3.769-1.1,3.769-3.114v-1.241c0-2.016-1.241-3.114-3.769-3.114H60.53v12.6Zm2.528-6.928v-3.869h1.195a1.042,1.042,0,0,1,1.241,1.188v1.493a1.042,1.042,0,0,1-1.241,1.188H63.058Zm14.595,7.108c2.482,0,3.838-1.151,3.838-3.167v-6.622c0-2.016-1.356-3.168-3.838-3.168s-3.838,1.152-3.838,3.168v6.622C73.815,179.6,75.171,180.746,77.653,180.746Zm0-1.8a1.126,1.126,0,0,1-1.31-1.242v-6.874a1.312,1.312,0,0,1,2.62,0v6.874A1.126,1.126,0,0,1,77.653,178.947Zm10.137,1.619h2.528v-5.4h0.873c1.149,0,1.586.378,1.586,1.547v2.3a3.1,3.1,0,0,0,.23,1.547H95.58a2.976,2.976,0,0,1-.276-1.529v-2.214c0-1.421-.414-2.357-1.677-2.663v-0.036a2.31,2.31,0,0,0,1.654-2.484v-0.773c0-1.944-1.126-2.9-3.746-2.9H87.79v12.6Zm2.528-7.2v-3.6h1.149a1.114,1.114,0,0,1,1.287,1.3v0.971a1.243,1.243,0,0,1-1.517,1.332H90.318Zm13.262,7.2h2.528v-10.8h2.642v-1.8h-7.813v1.8h2.643v10.8Zm10.987,0H117.1v-5.488h3.263v-1.8H117.1v-3.509h4.159v-1.8h-6.687v12.6Zm16.158,0.18c2.481,0,3.837-1.151,3.837-3.167v-6.622c0-2.016-1.356-3.168-3.837-3.168s-3.838,1.152-3.838,3.168v6.622C126.887,179.6,128.243,180.746,130.725,180.746Zm0-1.8a1.126,1.126,0,0,1-1.31-1.242v-6.874a1.311,1.311,0,0,1,2.619,0v6.874A1.126,1.126,0,0,1,130.725,178.947Zm10.137,1.619h6.687v-1.8h-4.16v-10.8h-2.527v12.6Zm12.5,0h2.528v-12.6h-2.528v12.6Zm12.664,0.18c2.482,0,3.837-1.151,3.837-3.167v-6.622c0-2.016-1.355-3.168-3.837-3.168s-3.838,1.152-3.838,3.168v6.622C162.191,179.6,163.547,180.746,166.029,180.746Zm0-1.8a1.127,1.127,0,0,1-1.31-1.242v-6.874a1.312,1.312,0,0,1,2.62,0v6.874A1.127,1.127,0,0,1,166.029,178.947Zm9.769-3.779h5.056v-1.8H175.8v1.8Z" transform="translate(-0.5 -140.281)"/>
</svg>
