<svg id="audio.svg" xmlns="http://www.w3.org/2000/svg" width="35" height="34" viewBox="0 0 35 34">
  <defs>
    <style>
      .cls-1, .cls-2 {
        fill: none;
        stroke: #000;
        stroke-width: 2px;
      }

      .cls-2 {
        fill-rule: evenodd;
      }
    </style>
  </defs>
  <rect class="cls-1" x="1" y="11" width="6" height="13"/>
  <path class="cls-2" d="M1335,46.667L1347,36V68l-12-9.333v-12Z" transform="translate(-1329 -35)"/>
  <path id="Rounded_Rectangle_2" data-name="Rounded Rectangle 2" class="cls-2" d="M1347,49h2.67a1.587,1.587,0,0,1,1.33,1.75v3.5a1.587,1.587,0,0,1-1.33,1.75H1347" transform="translate(-1329 -35)"/>
  <path id="Rounded_Rectangle_1" data-name="Rounded Rectangle 1" class="cls-2" d="M1356.12,42c3.8,0,6.88,4.477,6.88,10s-3.08,10-6.88,10" transform="translate(-1329 -35)"/>
  <path id="Rounded_Rectangle_1_copy" data-name="Rounded Rectangle 1 copy" class="cls-2" d="M1353,46c2.28,0,4.12,2.686,4.12,6s-1.84,6-4.12,6" transform="translate(-1329 -35)"/>
</svg>
