<svg id="Vector_Logo.svg" data-name="Vector Logo.svg" xmlns="http://www.w3.org/2000/svg" width="229.813" height="180.75" viewBox="0 0 229.813 180.75">
  <defs>
    <style>
      .cls-1, .cls-2, .cls-3 {
        fill: none;
        stroke: #252525;
      }

      .cls-1 {
        stroke-linecap: round;
        stroke-width: 3px;
        stroke-dasharray: 0.001 6;
      }

      .cls-2, .cls-3 {
        stroke-width: 4px;
      }

      .cls-3, .cls-4 {
        fill-rule: evenodd;
      }
    </style>
  </defs>
  <circle id="Ellipse_2.svg" data-name="Ellipse 2.svg" class="cls-1" cx="111.797" cy="65.672" r="60.828"/>
  <circle id="Ellipse_2_copy.svg" data-name="Ellipse 2 copy.svg" class="cls-2" cx="112" cy="65.5" r="65.5"/>
  <path id="Polygon_2.svg" data-name="Polygon 2.svg" class="cls-3" d="M107.253,35.218l30.859,53.325H76.394Z" transform="translate(-0.5)"/>
  <path id="Polygon_2_copy_2.svg" data-name="Polygon 2 copy 2.svg" class="cls-3" d="M117.33,35.218l30.859,53.325H86.471Z" transform="translate(-0.5)"/>
  <path id="Polygon_2_copy_3.svg" data-name="Polygon 2 copy 3.svg" class="cls-3" d="M112.292,26.4l30.859,53.325H81.432Z" transform="translate(-0.5)"/>
  <path id="Level.svg" class="cls-4" d="M114.408,24.34l5.5,1.787,0.6-1.918L117.091,23.1l3.626-11.508-2.079-.675Zm12.474,4.8,5.475,2.373,0.779-1.852-3.468-1.5,1.675-3.982,2.756,1.195,0.778-1.852-2.755-1.195,1.441-3.426,3.467,1.5,0.779-1.852-5.475-2.373Zm11.565,7.767,2.293,1.8,10.15-9.854L149.3,27.61l-7.712,7.77-0.032-.025,5.451-9.542-1.744-1.366Zm6.138,6.057,3.42,4.946,1.624-1.157-2.166-3.133,3.492-2.486,1.721,2.489,1.624-1.156-1.721-2.49,3-2.139,2.166,3.133,1.625-1.157-3.421-4.946Zm3.828,7.282,2.021,5.378,1.829-.707-1.258-3.345,10.97-4.244L161.211,45.3Z" transform="translate(-0.5)"/>
  <path id="NEXT.svg" class="cls-4" d="M73.008,49.659l1.231-1.4-7.261-6.416L67,41.816l8.919,4.531,1.419-1.613-9.947-8.789-1.231,1.4,5.954,5.261-0.025.028-7.3-3.733-1.733,1.97Zm9.18-11.743,4.482-3.524L85.5,32.9,82.663,35.13l-2.511-3.214,2.256-1.774L81.24,28.647l-2.256,1.774-2.161-2.765,2.839-2.232-1.168-1.495-4.482,3.524Zm9.051-6.477L93,30.545,92.306,25.7l0.034-.017,3.437,3.45,1.965-1L92.536,23.16,91.667,16.32l-1.761.894L90.547,21.7l-0.034.017-3.182-3.2-1.965,1,4.968,4.759Zm14.73-4.761,1.979-.664L104.359,15.2l2.069-.694-0.6-1.8-6.119,2.053,0.6,1.8,2.07-.695Z" transform="translate(-0.5)"/>
  <path id="_Oscar_castañeda_-portfolio-.svg" data-name=" Oscar castañeda -portfolio-.svg" class="cls-4" d="M5.092,159.182c2.975,0,4.6-1.381,4.6-3.8v-7.939c0-2.417-1.625-3.8-4.6-3.8s-4.6,1.38-4.6,3.8v7.939C0.491,157.8,2.116,159.182,5.092,159.182Zm0-2.157a1.35,1.35,0,0,1-1.57-1.489v-8.241a1.35,1.35,0,0,1,1.57-1.489,1.35,1.35,0,0,1,1.57,1.489v8.241A1.35,1.35,0,0,1,5.092,157.025Zm16.09,2.157c2.975,0,4.573-1.381,4.573-3.84,0-1.877-.8-3.085-3.333-4.833-1.984-1.359-2.617-2.157-2.617-3.258a1.3,1.3,0,0,1,1.515-1.445,1.311,1.311,0,0,1,1.515,1.489v0.776H25.7v-0.625c0-2.417-1.46-3.8-4.408-3.8s-4.518,1.38-4.518,3.754c0,1.725.826,2.955,3.361,4.7,1.984,1.359,2.59,2.157,2.59,3.409a1.348,1.348,0,0,1-1.57,1.51,1.336,1.336,0,0,1-1.57-1.467v-1.036H16.719v0.863C16.719,157.8,18.207,159.182,21.182,159.182Zm16.09,0c2.92,0,4.463-1.381,4.463-3.711v-2.135H38.87v2.308a1.293,1.293,0,0,1-1.515,1.381,1.293,1.293,0,0,1-1.515-1.381v-8.436a1.308,1.308,0,0,1,1.515-1.4,1.308,1.308,0,0,1,1.515,1.4v1.748h2.865v-1.6c0-2.33-1.543-3.71-4.463-3.71s-4.463,1.38-4.463,3.71v8.112C32.81,157.8,34.352,159.182,37.273,159.182Zm10.994-.216h2.81l0.551-2.955h3.444v-0.043l0.551,3h3.03l-3.141-15.1h-4.1Zm3.719-5,1.322-7.465h0.055l1.35,7.465H51.986Zm13.638,5h3.03v-6.472H69.7c1.377,0,1.9.453,1.9,1.856v2.761a3.721,3.721,0,0,0,.275,1.855h3.085a3.57,3.57,0,0,1-.331-1.833v-2.654c0-1.7-.5-2.826-2.011-3.193v-0.043a2.769,2.769,0,0,0,1.984-2.978v-0.927c0-2.33-1.35-3.474-4.49-3.474H65.624v15.1Zm3.03-8.629v-4.315h1.377a1.335,1.335,0,0,1,1.543,1.553v1.165c0,1.208-.689,1.6-1.818,1.6h-1.1Zm27.772,8.845c2.92,0,4.463-1.381,4.463-3.711v-2.135H98.024v2.308a1.522,1.522,0,0,1-3.03,0v-8.436a1.52,1.52,0,0,1,3.03,0v1.748h2.866v-1.6c0-2.33-1.543-3.71-4.463-3.71s-4.463,1.38-4.463,3.71v8.112C91.964,157.8,93.506,159.182,96.427,159.182Zm10.993-.216h2.81l0.551-2.955h3.444v-0.043l0.551,3h3.031l-3.141-15.1h-4.1Zm3.72-5,1.322-7.465h0.055l1.35,7.465H111.14Zm17.495,5.221c2.975,0,4.573-1.381,4.573-3.84,0-1.877-.8-3.085-3.333-4.833-1.984-1.359-2.617-2.157-2.617-3.258a1.3,1.3,0,0,1,1.515-1.445,1.311,1.311,0,0,1,1.515,1.489v0.776h2.865v-0.625c0-2.417-1.46-3.8-4.408-3.8s-4.518,1.38-4.518,3.754c0,1.725.827,2.955,3.361,4.7,1.984,1.359,2.59,2.157,2.59,3.409a1.573,1.573,0,0,1-3.141.043v-1.036h-2.865v0.863C124.172,157.8,125.66,159.182,128.635,159.182Zm14.19-.216h3.03V146.022h3.168v-2.158h-9.367v2.158h3.169v12.944Zm11.1,0h2.81l0.551-2.955h3.443v-0.043l0.551,3h3.031l-3.141-15.1h-4.105Zm3.719-5,1.322-7.465h0.055l1.35,7.465h-2.727Zm16.035-11.024a1.281,1.281,0,0,1,1.1-.842,2.23,2.23,0,0,1,.937.281,3.607,3.607,0,0,0,1.653.41,2.884,2.884,0,0,0,2.507-1.813l-1.46-.69a1.282,1.282,0,0,1-1.1.841,2.224,2.224,0,0,1-.937-0.28,3.607,3.607,0,0,0-1.653-.41,2.883,2.883,0,0,0-2.507,1.812Zm-2.4,16.029h2.7V147.942h0.055l3.637,11.024h3.113v-15.1h-2.7v9.04h-0.055l-2.948-9.04h-3.8v15.1Zm17.275,0h8.265v-2.157h-5.234V152.17h4.16v-2.157h-4.16v-3.991h5.234v-2.158h-8.265v15.1Zm15.512,0H208.7c3.031,0,4.518-1.316,4.518-3.732V147.6c0-2.417-1.487-3.733-4.518-3.733h-4.628v15.1Zm3.03-2.157V146.022h1.543a1.316,1.316,0,0,1,1.543,1.467v7.853a1.316,1.316,0,0,1-1.543,1.467H207.1Zm12.812,2.157h2.811l0.551-2.955h3.443v-0.043l0.551,3H230.3l-3.141-15.1h-4.1Zm3.72-5,1.322-7.465h0.055l1.35,7.465h-2.727ZM49.36,175.168h5.055v-1.8H49.36v1.8Zm11.17,5.4h2.528v-5.128h1.195c2.528,0,3.769-1.1,3.769-3.114v-1.241c0-2.016-1.241-3.114-3.769-3.114H60.53v12.6Zm2.528-6.928v-3.869h1.195a1.042,1.042,0,0,1,1.241,1.188v1.493a1.042,1.042,0,0,1-1.241,1.188H63.058Zm14.595,7.108c2.482,0,3.838-1.151,3.838-3.167v-6.622c0-2.016-1.356-3.168-3.838-3.168s-3.838,1.152-3.838,3.168v6.622C73.815,179.6,75.171,180.746,77.653,180.746Zm0-1.8a1.126,1.126,0,0,1-1.31-1.242v-6.874a1.312,1.312,0,0,1,2.62,0v6.874A1.126,1.126,0,0,1,77.653,178.947Zm10.137,1.619h2.528v-5.4h0.873c1.149,0,1.586.378,1.586,1.547v2.3a3.1,3.1,0,0,0,.23,1.547H95.58a2.976,2.976,0,0,1-.276-1.529v-2.214c0-1.421-.414-2.357-1.677-2.663v-0.036a2.31,2.31,0,0,0,1.654-2.484v-0.773c0-1.944-1.126-2.9-3.746-2.9H87.79v12.6Zm2.528-7.2v-3.6h1.149a1.114,1.114,0,0,1,1.287,1.3v0.971a1.243,1.243,0,0,1-1.517,1.332H90.318Zm13.262,7.2h2.528v-10.8h2.642v-1.8h-7.813v1.8h2.643v10.8Zm10.987,0H117.1v-5.488h3.263v-1.8H117.1v-3.509h4.159v-1.8h-6.687v12.6Zm16.158,0.18c2.481,0,3.837-1.151,3.837-3.167v-6.622c0-2.016-1.356-3.168-3.837-3.168s-3.838,1.152-3.838,3.168v6.622C126.887,179.6,128.243,180.746,130.725,180.746Zm0-1.8a1.126,1.126,0,0,1-1.31-1.242v-6.874a1.311,1.311,0,0,1,2.619,0v6.874A1.126,1.126,0,0,1,130.725,178.947Zm10.137,1.619h6.687v-1.8h-4.16v-10.8h-2.527v12.6Zm12.5,0h2.528v-12.6h-2.528v12.6Zm12.664,0.18c2.482,0,3.837-1.151,3.837-3.167v-6.622c0-2.016-1.355-3.168-3.837-3.168s-3.838,1.152-3.838,3.168v6.622C162.191,179.6,163.547,180.746,166.029,180.746Zm0-1.8a1.127,1.127,0,0,1-1.31-1.242v-6.874a1.312,1.312,0,0,1,2.62,0v6.874A1.127,1.127,0,0,1,166.029,178.947Zm9.769-3.779h5.056v-1.8H175.8v1.8Z" transform="translate(-0.5)"/>
  <path id="design.svg" class="cls-4" d="M69.943,100.732q1.621,1.353,3.3,2.585c2.218,1.61,3.9,1.421,4.9-.163l3.2-5.01c1-1.6.628-3.016-1.166-4.32q-1.376-1.008-2.7-2.116l-7.534,9.024h0Zm3.17,0.386,5.1-6.668q0.468,0.359.941,0.705a1.027,1.027,0,0,1,.3,1.618l-3.5,5.01a1.082,1.082,0,0,1-1.752.149Q73.652,101.532,73.113,101.118Zm12.525,9.316a64.172,64.172,0,0,0,6.7,2.481l0.5-1.605q-2.1-.647-4.159-1.443l1.3-3.368q1.543,0.6,3.11,1.1l0.519-1.6q-1.522-.493-3.022-1.074l1.122-2.9q1.786,0.692,3.605,1.252l0.5-1.605a52.65,52.65,0,0,1-5.487-2.032Zm19.56,5.221c2.543,0.236,3.945-.826,4-2.731,0.058-1.467-.575-2.405-2.4-3.906-1.421-1.181-1.8-1.866-1.7-2.713a1.109,1.109,0,1,1,2.2.242q-0.024.3-.046,0.6,1.058,0.079,2.114.118l0.018-.487c0.058-1.887-.917-2.969-2.942-3.154s-3.268.67-3.566,2.5c-0.2,1.321.231,2.385,2.042,3.962,1.43,1.216,1.889,1.857,1.811,2.832a1.286,1.286,0,0,1-2.554-.212c0.031-.267.063-0.534,0.094-0.8q-1.146-.133-2.29-0.312c-0.035.221-.07,0.443-0.1,0.664C101.568,114.107,102.656,115.4,105.2,115.655Zm13.545-.281q1.278-.144,2.55-0.339-0.891-5.809-1.784-11.619-1.041.159-2.088,0.277,0.662,5.841,1.322,11.681h0Zm15.931-3.7c2.4-.924,3.152-2.486,2.366-4.186l-1.586-3.5q-1.541.7-3.112,1.3l0.6,1.567q0.56-.215,1.115-0.44l0.869,2.13a1.3,1.3,0,0,1-2.408.922q-1.09-3.025-2.18-6.052a1.155,1.155,0,0,1,2.158-.826q0.213,0.521.425,1.042,1-.407,1.982-0.851l-0.415-.918c-0.791-1.715-2.212-2.219-4.138-1.478s-2.641,2.049-2.085,3.853l1.86,5.894C130.678,111.918,132.271,112.583,134.673,111.676Zm12.306-6.477q0.984-.646,1.95-1.331-2.482-3.5-4.963-7L144,96.841q3.611,2.7,7.528,5.081,1.08-.852,2.129-1.754L146,91.247q-0.744.641-1.508,1.25L148.875,98l-0.035.028q-3.135-2-6.068-4.219-1.1.808-2.238,1.553Q143.756,100.282,146.979,105.2Z" transform="translate(-0.5)"/>
</svg>
