<svg id="LOGO.svg" xmlns="http://www.w3.org/2000/svg" width="187" height="187" viewBox="0 0 187 187">
  <defs>
    <style>
      .cls-1 {
        fill: #fff;
      }
      .cls-1, .cls-2, .cls-3 {
        stroke: #000;
      }
      .cls-1, .cls-3 {
        stroke-width: 4px;
      }
      .cls-2, .cls-3 {
        fill: none;
      }
      .cls-2 {
        stroke-linecap: round;
        stroke-width: 3px;
        stroke-dasharray: 0.001 6;
      }
      .cls-3, .cls-4 {
        fill-rule: evenodd;
      }
      .cls-4{
        fill:#000
      }
     
    }
    </style>
  </defs>
  <g id="circles">
    <circle  data-name="Ellipse 2 copy" class="cls-1" cx="93.5" cy="93.5" r="91.5"/>
    <circle id="Ellipse_2_copy" class="cls-2"  cx="93.735" cy="94.235" r="77.078">
        <animateTransform attributeType="xml" attributeName="transform" type="rotate" from="360 93.735 94.235" to="0 93.735 94.235" dur="30s" additive="sum" repeatCount="indefinite" />
    </circle>
  </g>
  <g id="triangles">
    <path id="Polygon_2" data-name="Polygon 2" class="cls-3" d="M87.351,55.627l39.1,67.572H48.247Z"/>
    <path id="Polygon_2_copy_2" data-name="Polygon 2 copy 2" class="cls-3" d="M100.12,55.627l39.1,67.572H61.017Z"/>
    <path id="Polygon_2_copy_3" data-name="Polygon 2 copy 3" class="cls-3" d="M93.736,44.454l39.1,67.572H54.632Z"/>
  </g>
  <path id="design" class="cls-4" d="M40.073,138.645q2.054,1.716,4.186,3.275c2.811,2.041,4.945,1.8,6.209-.2l4.056-6.35c1.273-2.027.8-3.822-1.477-5.474q-1.744-1.276-3.426-2.681Zm4.017,0.49,6.466-8.451q0.592,0.454,1.192.894a1.3,1.3,0,0,1,.376,2.051l-4.439,6.348c-0.607.873-1.354,0.823-2.22,0.189q-0.691-.507-1.375-1.031h0Zm15.871,11.8a81.535,81.535,0,0,0,8.494,3.144l0.628-2.033q-2.658-.819-5.27-1.83l1.652-4.267q1.956,0.756,3.941,1.4l0.657-2.025q-1.929-.626-3.83-1.361l1.421-3.672q2.263,0.876,4.569,1.586l0.628-2.034a66.488,66.488,0,0,1-6.953-2.574Zm24.786,6.616c3.222,0.3,5-1.046,5.068-3.461,0.074-1.858-.728-3.046-3.047-4.95-1.8-1.5-2.276-2.363-2.157-3.437a1.405,1.405,0,1,1,2.793.306l-0.057.764q1.338,0.1,2.679.149,0.012-.309.023-0.617c0.073-2.391-1.162-3.762-3.728-4-2.565-.25-4.142.848-4.52,3.167-0.255,1.674.293,3.023,2.588,5.021,1.812,1.541,2.394,2.353,2.3,3.589a1.631,1.631,0,0,1-3.237-.269l0.12-1.015q-1.454-.169-2.9-0.4-0.066.42-.132,0.841C80.148,155.593,81.526,157.234,84.746,157.555Zm17.163-.356q1.62-.183,3.233-0.43-1.131-7.362-2.261-14.723-1.32.2-2.646,0.351Zm20.188-4.686c3.037-1.171,4-3.15,3-5.305q-1.007-2.22-2.011-4.44-1.951.882-3.943,1.646,0.383,0.993.764,1.987,0.709-.273,1.413-0.559l1.1,2.7c0.4,0.984-.046,1.585-1,1.952s-1.691.218-2.049-.784l-2.763-7.669a1.465,1.465,0,0,1,2.736-1.047l0.538,1.32q1.264-.513,2.511-1.078-0.263-.581-0.526-1.163c-1-2.173-2.8-2.812-5.244-1.873s-3.346,2.6-2.642,4.883l2.358,7.469C117.035,152.82,119.053,153.663,122.1,152.513Zm15.593-8.207q1.248-.819,2.472-1.687l-6.29-8.874,0.044-.031q4.575,3.42,9.54,6.439,1.368-1.078,2.7-2.222l-9.7-11.306q-0.945.813-1.912,1.584l5.554,6.977-0.044.036q-3.972-2.537-7.689-5.346-1.4,1.024-2.836,1.968Z"/>
  <path id="Level" class="cls-4" d="M96.418,41.843l6.969,2.264,0.766-2.431-4.335-1.408,4.595-14.583-2.635-.856Zm15.807,6.086,6.937,3.007,0.987-2.347-4.394-1.9,2.122-5.046,3.492,1.514,0.987-2.347-3.492-1.514,1.826-4.342,4.394,1.9,0.987-2.347L119.133,31.5Zm14.654,9.843,2.906,2.277,12.862-12.486-2.011-1.575-9.773,9.846-0.04-.031,6.907-12.091-2.21-1.731Zm7.778,7.676,4.334,6.268,2.058-1.465L138.3,66.28l4.425-3.151,2.181,3.155,2.058-1.466-2.181-3.155,3.807-2.711,2.745,3.969,2.058-1.465-4.334-6.268Zm4.851,9.228,2.562,6.815,2.316-.9-1.593-4.239,13.9-5.378L155.725,68.4Z"/>
  <path id="NEXT" class="cls-4" d="M43.956,73.927l1.56-1.773-9.2-8.13,0.032-.036,11.3,5.742,1.8-2.044L36.843,56.55l-1.56,1.773,7.545,6.666-0.032.036-9.248-4.731-2.2,2.5Zm11.632-14.88,5.68-4.465-1.48-1.894-3.6,2.828-3.182-4.073L55.868,49.2,54.388,47.3l-2.859,2.247-2.738-3.5,3.6-2.828-1.48-1.894-5.68,4.465Zm11.469-8.208,2.232-1.133L68.411,43.57l0.043-.022L72.81,47.92,75.3,46.656l-6.6-6.309-1.1-8.666-2.232,1.133L66.181,38.5l-0.043.022-4.032-4.05-2.49,1.264,6.3,6.03Zm18.664-6.033,2.509-.842L83.684,30.259l2.623-.88-0.758-2.284-7.754,2.6,0.758,2.284,2.623-.88Z"/>
</svg>
